<?xml version="1.0" standalone="no"?><!DOCTYPE svg PUBLIC "-//W3C//DTD SVG 1.1//EN" "http://www.w3.org/Graphics/SVG/1.1/DTD/svg11.dtd"><svg t="1698206348096" class="icon" viewBox="0 0 1061 1024" version="1.1" xmlns="http://www.w3.org/2000/svg" p-id="9574" xmlns:xlink="http://www.w3.org/1999/xlink" width="207.2265625" height="200"><path d="M 113.778 230.476 a 56.8889 56.8889 0 0 0 -56.8889 56.8889 v 493.037 a 56.8889 56.8889 0 0 0 56.8889 56.8889 h 834.37 a 56.8889 56.8889 0 0 0 56.8889 -56.8889 v -493.037 a 56.8889 56.8889 0 0 0 -56.8889 -56.8889 h -14.2981 l -3.9443 -13.7292 C 898.92 108.923 865.128 56.8889 835.394 56.8889 c -33.1473 0 -92.5393 55.1822 -171.349 165.623 l -5.68889 7.96445 h -250.463 l -5.65096 -8.30578 C 326.997 111.692 268.364 56.8889 232.107 56.8889 c -32.8818 0 -66.3704 51.5793 -94.3597 159.365 l -3.67881 14.2222 H 113.778 Z M 232.107 18.963 c 52.6412 0 116.091 58.1404 195.812 173.587 h 210.944 C 722.413 76.8759 785.825 18.963 835.394 18.963 c 52.1861 0 92.5393 59.3541 127.279 174.687 a 94.8148 94.8148 0 0 1 80.2892 93.677 v 493.037 a 94.8148 94.8148 0 0 1 -94.8148 94.8148 H 113.778 a 94.8148 94.8148 0 0 1 -94.8148 -94.8148 v -493.037 a 94.8148 94.8148 0 0 1 85.7505 -94.3597 C 136.344 78.355 177 18.963 232.107 18.963 Z M 530.963 929.185 v 75.8519 a 18.963 18.963 0 1 0 37.9259 0 v -75.8519 a 18.963 18.963 0 1 0 -37.9259 0 Z" fill="#7dc5eb" p-id="9575"></path><path d="M 284.444 1024 h 530.963 a 18.963 18.963 0 1 0 0 -37.9259 h -530.963 a 18.963 18.963 0 1 0 0 37.9259 Z" fill="#7dc5eb" p-id="9576"></path><path d="M 251.639 130.655 L 231.727 180.983 a 18.963 18.963 0 0 0 19.3043 25.8655 l 14.4119 -1.28948 a 18.963 18.963 0 0 0 14.5256 -28.8237 l -28.3307 -46.08 Z M 829.174 130.655 l 19.8732 50.3277 a 18.963 18.963 0 0 1 -19.2664 25.8655 l -14.4119 -1.28948 a 18.963 18.963 0 0 1 -14.5256 -28.8237 l 28.3307 -46.08 Z" fill="#7dc5eb" p-id="9577"></path><path d="M 341.333 322.37 A 170.667 170.667 0 0 0 170.667 493.037 v 75.8519 A 170.667 170.667 0 0 0 341.333 739.556 h 379.259 a 170.667 170.667 0 0 0 170.667 -170.667 v -75.8519 A 170.667 170.667 0 0 0 720.593 322.37 H 341.333 Z m 0 -37.9259 h 379.259 a 208.593 208.593 0 0 1 208.593 208.593 v 75.8519 a 208.593 208.593 0 0 1 -208.593 208.593 H 341.333 A 208.593 208.593 0 0 1 132.741 568.889 v -75.8519 A 208.593 208.593 0 0 1 341.333 284.444 Z" fill="#7dc5eb" p-id="9578"></path></svg>